<svg width="21" height="24" viewBox="0 0 21 24" fill="none" xmlns="http://www.w3.org/2000/svg">
<path d="M18.6667 0H2.33333C1.71449 0 1.121 0.252856 0.683417 0.702944C0.245833 1.15303 0 1.76348 0 2.4V18C0 18.6365 0.245833 19.247 0.683417 19.6971C1.121 20.1471 1.71449 20.4 2.33333 20.4H7L10.5 24L14 20.4H18.6667C19.2855 20.4 19.879 20.1471 20.3166 19.6971C20.7542 19.247 21 18.6365 21 18V2.4C21 1.76348 20.7542 1.15303 20.3166 0.702944C19.879 0.252856 19.2855 0 18.6667 0ZM10.5 3.6C12.5148 3.6 14 5.1264 14 7.2C14 9.2736 12.5148 10.8 10.5 10.8C8.48633 10.8 7 9.2736 7 7.2C7 5.1264 8.48633 3.6 10.5 3.6ZM4.87317 16.8C5.52417 14.7324 7.78517 13.2 10.5 13.2C13.2148 13.2 15.477 14.7324 16.1268 16.8H4.87317Z" fill="#333333"/>
</svg>
