<svg width="26" height="25" viewBox="0 0 26 25" fill="none" xmlns="http://www.w3.org/2000/svg">
<path d="M25.4619 11.8736L13.6487 0.2644C13.5636 0.180586 13.4626 0.114091 13.3514 0.068722C13.2402 0.0233529 13.1209 0 13.0005 0C12.8801 0 12.7609 0.0233529 12.6497 0.068722C12.5385 0.114091 12.4374 0.180586 12.3524 0.2644L0.53918 11.8736C0.195022 12.2121 0 12.6718 0 13.1513C0 14.147 0.823109 14.9564 1.8355 14.9564H3.08021V23.2403C3.08021 23.7395 3.49033 24.1429 3.99796 24.1429H11.165V17.8249H14.3772V24.1429H22.0031C22.5107 24.1429 22.9209 23.7395 22.9209 23.2403V14.9564H24.1656C24.6531 14.9564 25.1206 14.7675 25.4648 14.4262C26.1789 13.7211 26.1789 12.5788 25.4619 11.8736Z" fill="#333333"/>
</svg>
