<svg width="36" height="36" viewBox="0 0 36 36" fill="none" xmlns="http://www.w3.org/2000/svg">
<path d="M33.0961 0.66382C33.307 0.878203 33.4688 1.125 33.5812 1.38867C33.6867 1.65234 33.6867 1.94062 33.75 2.24297V9C33.75 10.2445 32.7445 11.25 31.5 11.25C30.2555 11.25 29.25 10.2445 29.25 9V7.68516L21.8391 15.0891C21.0094 15.9258 19.6805 15.975 18.7875 15.2086L12.3117 9.71016L5.96391 15.2086C5.02102 16.0172 3.6 15.9047 2.79141 14.9625C1.98281 14.0203 2.0925 12.6 3.03539 11.7914L10.9125 5.04141C11.7562 4.3193 12.9938 4.3193 13.8375 5.04141L20.1305 10.4344L26.0648 4.5H24.75C23.5055 4.5 22.5 3.49242 22.5 2.25C22.5 1.00758 23.5055 0 24.75 0H31.4367C32.1188 0 32.6813 0.249891 33.0891 0.654258L33.0961 0.66382ZM0 21.375C0 19.5117 1.51102 18 3.375 18H32.625C34.4883 18 36 19.5117 36 21.375V32.625C36 34.4883 34.4883 36 32.625 36H3.375C1.51102 36 0 34.4883 0 32.625V21.375ZM3.375 32.625H6.75C6.75 30.7617 5.23898 29.25 3.375 29.25V32.625ZM3.375 21.375V24.75C5.23898 24.75 6.75 23.2383 6.75 21.375H3.375ZM32.625 29.25C30.7617 29.25 29.25 30.7617 29.25 32.625H32.625V29.25ZM29.25 21.375C29.25 23.2383 30.7617 24.75 32.625 24.75V21.375H29.25ZM18 22.5C15.518 22.5 13.5 24.518 13.5 27C13.5 29.482 15.518 31.5 18 31.5C20.482 31.5 22.5 29.482 22.5 27C22.5 24.518 20.482 22.5 18 22.5Z" fill="#219F94"/>
</svg>
