<svg width="36" height="36" viewBox="0 0 36 36" fill="none" xmlns="http://www.w3.org/2000/svg">
<path d="M33.0961 15.0878C33.307 14.8735 33.4688 14.6267 33.5812 14.363C33.6867 14.0993 33.6867 13.811 33.75 13.5087V6.75167C33.75 5.50713 32.7445 4.50167 31.5 4.50167C30.2555 4.50167 29.25 5.50713 29.25 6.75167V8.06651L21.8391 0.662602C21.0094 -0.174116 19.6805 -0.223335 18.7875 0.543071L12.3117 6.04151L5.96391 0.543071C5.02102 -0.265523 3.6 -0.153023 2.79141 0.789165C1.98281 1.73135 2.0925 3.15167 3.03539 3.96026L10.9125 10.7103C11.7562 11.4324 12.9938 11.4324 13.8375 10.7103L20.1305 5.31729L26.0648 11.2517H24.75C23.5055 11.2517 22.5 12.2592 22.5 13.5017C22.5 14.7441 23.5055 15.7517 24.75 15.7517H31.4367C32.1188 15.7517 32.6812 15.5018 33.0891 15.0974L33.0961 15.0878ZM0 21.375C0 19.5117 1.51102 18 3.375 18H32.625C34.4883 18 36 19.5117 36 21.375V32.625C36 34.4883 34.4883 36 32.625 36H3.375C1.51102 36 0 34.4883 0 32.625V21.375ZM3.375 32.625H6.75C6.75 30.7617 5.23898 29.25 3.375 29.25V32.625ZM3.375 21.375V24.75C5.23898 24.75 6.75 23.2383 6.75 21.375H3.375ZM32.625 29.25C30.7617 29.25 29.25 30.7617 29.25 32.625H32.625V29.25ZM29.25 21.375C29.25 23.2383 30.7617 24.75 32.625 24.75V21.375H29.25ZM18 22.5C15.518 22.5 13.5 24.518 13.5 27C13.5 29.482 15.518 31.5 18 31.5C20.482 31.5 22.5 29.482 22.5 27C22.5 24.518 20.482 22.5 18 22.5Z" fill="#CE0303"/>
</svg>
